<?xml version="1.0" standalone="no"?>
<!DOCTYPE svg PUBLIC "-//W3C//DTD SVG 20010904//EN"
 "http://www.w3.org/TR/2001/REC-SVG-20010904/DTD/svg10.dtd">
<svg version="1.0" xmlns="http://www.w3.org/2000/svg"
 width="338.000000pt" height="338.000000pt" viewBox="0 0 338.000000 338.000000"
 preserveAspectRatio="xMidYMid meet">
<metadata>
Created by potrace 1.14, written by Peter Selinger 2001-2017
</metadata>
<g transform="translate(0.000000,338.000000) scale(0.100000,-0.100000)"
fill="#000000" stroke="none">
<path d="M1602 3362 c-46 -7 -109 -28 -160 -52 -46 -22 -90 -40 -97 -40 -8 0
-17 -4 -20 -10 -3 -5 -13 -10 -21 -10 -19 0 -137 -69 -184 -107 -107 -88 -215
-228 -277 -360 -20 -43 -46 -86 -57 -96 -52 -44 -66 -61 -88 -105 -20 -42 -23
-64 -26 -214 -5 -202 7 -254 68 -296 35 -25 38 -31 42 -83 l3 -56 -28 9 c-15
6 -30 14 -33 19 -13 21 -55 8 -75 -23 -18 -29 -20 -44 -15 -128 5 -108 9 -133
37 -244 11 -43 18 -81 15 -83 -3 -3 -40 -6 -82 -7 -70 -2 -79 -5 -101 -30 -13
-15 -21 -31 -18 -36 3 -5 1 -11 -5 -15 -6 -4 -7 -12 -3 -18 4 -6 8 -38 9 -72
3 -104 14 -337 19 -420 12 -189 10 -305 -5 -315 -8 -5 -10 -10 -5 -10 6 0 2
-5 -8 -11 -20 -12 -59 -84 -50 -93 4 -3 1 -6 -6 -6 -8 0 -10 -7 -6 -21 5 -14
3 -19 -3 -15 -9 5 -23 -32 -24 -61 0 -5 -4 -15 -9 -24 -4 -9 -10 -27 -13 -40
-3 -13 -15 -62 -26 -109 -10 -47 -22 -106 -25 -132 l-6 -48 1381 0 1381 0 -5
63 c-3 34 -6 69 -7 77 -3 39 -62 265 -70 268 -5 2 -7 8 -4 12 8 13 -27 80 -38
73 -6 -3 -7 -1 -3 5 3 6 -4 21 -16 33 -13 12 -16 19 -8 15 12 -6 12 -5 -1 6
-13 11 -15 33 -13 123 1 61 4 139 7 175 8 87 19 351 21 477 1 94 -1 104 -21
125 -19 18 -35 23 -93 24 -39 1 -73 3 -75 6 -3 2 7 54 21 114 14 60 27 154 30
209 5 89 3 104 -15 133 -23 36 -54 42 -82 16 -29 -26 -46 -11 -47 41 -1 30 2
43 9 39 8 -4 8 0 0 14 -8 16 -7 23 7 33 15 13 16 12 3 -3 -12 -16 -11 -18 2
-18 8 0 30 18 47 40 17 22 29 40 26 40 -3 0 -1 12 4 26 12 30 15 303 5 349
-13 57 -37 98 -91 152 -30 31 -54 59 -54 64 0 20 -57 130 -108 206 -60 92
-179 209 -267 262 -75 46 -303 137 -390 156 -93 21 -162 23 -253 7z"/>
</g>
</svg>
